HIERARCHY
ROOT ui
{
	 OFFSET 0 0 0
	 CHANNELS 3 XPosition YPosition Z Position
	 EndSite
	 {
	 OFFSET 0 -1 0
	 }
}
ROOT li
{
	 OFFSET 0 0 0
	 CHANNELS 3 XPosition YPosition Z Position
	 EndSite
	 {
	 OFFSET 0 -1 0
	 }
}
ROOT ul
{
	 OFFSET 0 0 0
	 CHANNELS 3 XPosition YPosition Z Position
	 EndSite
	 {
	 OFFSET 0 -1 0
	 }
}
ROOT ll
{
	 OFFSET 0 0 0
	 CHANNELS 3 XPosition YPosition Z Position
	 EndSite
	 {
	 OFFSET 0 -1 0
	 }
}
ROOT tt
{
	 OFFSET 0 0 0
	 CHANNELS 3 XPosition YPosition Z Position
	 EndSite
	 {
	 OFFSET 0 -1 0
	 }
}
ROOT tb
{
	 OFFSET 0 0 0
	 CHANNELS 3 XPosition YPosition Z Position
	 EndSite
	 {
	 OFFSET 0 -1 0
	 }
}
ROOT td
{
	 OFFSET 0 0 0
	 CHANNELS 3 XPosition YPosition Z Position
	 EndSite
	 {
	 OFFSET 0 -1 0
	 }
}
ROOT v
{
	 OFFSET 0 0 0
	 CHANNELS 3 XPosition YPosition Z Position
	 EndSite
	 {
	 OFFSET 0 -1 0
	 }
}
ROOT bn
{
	 OFFSET 0 0 0
	 CHANNELS 3 XPosition YPosition Z Position
	 EndSite
	 {
	 OFFSET 0 -1 0
	 }
}
MOTION
Frames: 21
Frame Time: 0.002
-0.004788018226623535	-0.004395386219024658	0		0.4350791625976563	-2.334099609375	0		-0.9231235961914063	0.25210554504394533	0		-0.6279273071289062	-2.66753955078125	0		1.735184814453125	-0.42796893310546874	0		3.370892578125	-0.050926578521728515	0		4.56513525390625	-0.17946170043945311	0		5.97882861328125	0.4708673400878906	0		-0.23852937316894532	5.8766669921875	0		
-1.7486900091171265E-4	-0.0018720799684524537	0		0.4196628112792969	-2.338269287109375	0		-0.9125774536132812	0.2505135040283203	0		-0.72122265625	-2.6636005859375	0		1.735767333984375	-0.4283338317871094	0		3.366698486328125	-0.03517023086547852	0		4.5578134765625	-0.1726241455078125	0		5.97548681640625	0.4776893310546875	0		-0.10483072662353515	5.89629248046875	0		
0.0033900539875030516	6.452190279960632E-4	0		0.44925875854492187	-2.33911767578125	0		-0.9179907836914063	0.25513175964355467	0		-0.6497080688476562	-2.671099609375	0		1.739361083984375	-0.42475897216796876	0		3.367899658203125	-0.05750920867919922	0		4.56623779296875	-0.1800274200439453	0		5.9798896484375	0.47039157104492185	0		-0.08936075592041015	5.90563037109375	0		
8.182510137557983E-4	-0.002766779899597168	0		0.4389022216796875	-2.333398193359375	0		-0.9175281982421875	0.2546429290771484	0		-0.6949761962890625	-2.65990966796875	0		1.736789794921875	-0.42910906982421876	0		3.37847412109375	-0.05099195098876953	0		4.5715986328125	-0.18839305114746094	0		5.9803447265625	0.47014828491210936	0		-0.10522879791259766	5.89640478515625	0		
-0.008629617691040039	0.005907386779785156	0		0.46433306884765624	-2.339215087890625	0		-0.917117431640625	0.25413883972167967	0		-0.6364495849609375	-2.660248779296875	0		1.728255859375	-0.42738470458984373	0		3.3766201171875	-0.0703066177368164	0		4.5630556640625	-0.186564208984375	0		5.972748046875	0.4700147094726562	0		-0.23931704711914062	5.876880859375	0		
0.0016058199405670165	-0.003717924118041992	0		0.417703857421875	-2.344996826171875	0		-0.9167595825195313	0.2536243133544922	0		-0.6960221557617188	-2.662882568359375	0		1.7215234375	-0.4357000427246094	0		3.36702001953125	-0.0685191650390625	0		4.56319775390625	-0.20287641906738282	0		5.97309814453125	0.46975244140625	0		-0.23916502380371094	5.87639111328125	0		
0.0019192630052566528	-0.004206171989440918	0		0.44913946533203125	-2.342919189453125	0		-0.8964861450195313	0.2508148193359375	0		-0.6827037353515625	-2.669582763671875	0		1.72470703125	-0.44617041015625	0		3.3799150390625	-0.09807451629638672	0		4.55153369140625	-0.2020314178466797	0		5.97749609375	0.47641476440429686	0		-0.20778599548339843	5.89444384765625	0		
0.00827842903137207	0.0022144999504089356	0		0.4176940002441406	-2.3279365234375	0		-0.9710979614257812	0.2603750305175781	0		-0.6793009643554687	-2.666140625	0		1.7249801025390625	-0.4466064453125	0		3.383594970703125	-0.06950312042236328	0		4.563783203125	-0.20354872131347657	0		5.98285400390625	0.48404388427734374	0		-0.08857247161865234	5.9032265625	0		
0.005423480033874511	-0.0022334630489349366	0		0.4408609008789062	-2.335746826171875	0		-0.9069097900390625	0.2589332275390625	0		-0.68410693359375	-2.67257958984375	0		1.706053466796875	-0.4567734375	0		3.3573701171875	-0.09951898193359375	0		4.55581982421875	-0.21579136657714842	0		5.9699287109375	0.47591409301757814	0		-0.23894383239746095	5.8758955078125	0		
-0.007345362186431885	0.0034655990600585937	0		0.41206524658203125	-2.33580615234375	0		-0.9118296508789062	0.2544957275390625	0		-0.6608565063476562	-2.6704150390625	0		1.7080643310546875	-0.46724627685546877	0		3.367615478515625	-0.09306770324707031	0		4.55776708984375	-0.23019320678710936	0		5.973958984375	0.46851779174804686	0		-0.2389458465576172	5.87540234375	0		
-0.007264033794403076	0.002986649036407471	0		0.43508990478515625	-2.3436064453125	0		-0.9066964111328125	0.25792669677734376	0		-0.7007325439453125	-2.67133251953125	0		1.6989835205078125	-0.47956085205078125	0		3.36542626953125	-0.11244929504394531	0		4.55785302734375	-0.23058197021484375	0		5.97013232421875	0.47521371459960937	0		-0.2882052001953125	5.8596240234375	0		
0.0026225600242614747	-0.006622425079345703	0		0.431012451171875	-2.353008056640625	0		-0.90262646484375	0.2613891296386719	0		-0.6789082641601563	-2.688123046875	0		1.6959503173828125	-0.4839588928222656	0		3.381572021484375	-0.1040966796875	0		4.5627578125	-0.2390522918701172	0		5.97814111328125	0.4747203063964844	0		-0.2248938446044922	5.8852470703125	0		
-0.004239802837371826	0.006026120185852051	0		0.4412154541015625	-2.33759912109375	0		-0.9026786499023437	0.2609293518066406	0		-0.7237391357421875	-2.67493701171875	0		1.694705322265625	-0.4983761596679688	0		3.363124267578125	-0.1322515106201172	0		4.5746953125	-0.2406277313232422	0		5.97420166015625	0.4823878173828125	0		-0.09170218658447266	5.9048857421875	0		
-0.004356472969055176	0.005595164775848389	0		0.43704327392578124	-2.34296923828125	0		-0.9027969970703125	0.2604924011230469	0		-0.62103466796875	-2.689846923828125	0		1.7223455810546875	-0.5161951293945313	0		3.395933349609375	-0.13813217163085936	0		4.5722939453125	-0.26099734497070315	0		5.977966796875	0.47394039916992187	0		-0.10700004577636718	5.894669921875	0		
-0.007597445011138916	0.0012301429510116577	0		0.4348392333984375	-2.345347412109375	0		-0.90298193359375	0.26008078002929685	0		-0.6951727905273437	-2.68719775390625	0		1.710135986328125	-0.51842529296875	0		3.380765869140625	-0.13731369018554687	0		4.57699609375	-0.2694601745605469	0		5.97778125	0.47355337524414065	0		-0.24050653076171874	5.87416845703125	0		
-0.00784770917892456	8.464019894599915E-4	0		0.4345903625488281	-2.345730712890625	0		-0.9032323608398437	0.2596965026855469	0		-0.628571533203125	-2.69854052734375	0		1.7025716552734376	-0.5407055053710937	0		3.3682734375	-0.15452178955078125	0		4.57366015625	-0.27579757690429685	0		5.97753076171875	0.4731732177734375	0		-0.26068667602539064	5.8790703125	0		
-0.008161542892456054	4.888119995594025E-4	0		0.42607208251953127	-2.35997314453125	0		-0.971595947265625	0.25631515502929686	0		-0.7228525390625	-2.695550537109375	0		1.708170166015625	-0.54715185546875	0		3.384628173828125	-0.17812733459472657	0		4.57310205078125	-0.29316268920898436	0		5.9733330078125	0.48086004638671875	0		-0.22592060852050783	5.88321142578125	0		
0.011477662086486816	8.719080090522766E-4	0		0.4567154541015625	-2.35874951171875	0		-0.8988609008789062	0.26294183349609374	0		-0.6163615112304688	-2.705410400390625	0		1.70353759765625	-0.5654295043945312	0		3.398568115234375	-0.15667340087890624	0		4.58372705078125	-0.29366802978515627	0		5.9768466796875	0.472450439453125	0		-0.07881346893310547	5.9137724609375	0		
-0.005904810905456543	0.0038132050037384033	0		0.4064830932617188	-2.34433837890625	0		-0.90434375	0.25871609497070314	0		-0.6948219604492187	-2.70659130859375	0		1.6957930908203125	-0.5876367797851563	0		3.366698974609375	-0.18754365539550782	0		4.574328125	-0.29186248779296875	0		5.96842236328125	0.4722354125976562	0		-0.22765672302246093	5.88359521484375	0		
-0.0063810510635375975	0.003540071964263916	0		0.4387775268554687	-2.3600849609375	0		-0.9048187866210937	0.2584471130371094	0		-0.6304894409179688	-2.7197919921875	0		1.703083984375	-0.6040308837890624	0		3.414145263671875	-0.19352008056640624	0		4.59354736328125	-0.31344143676757813	0		5.9679482421875	0.4719346008300781	0		-0.10896024322509766	5.8926162109375	0		
-0.005015708923339844	-0.004732119083404541	0		0.4161070556640625	-2.3700146484375	0		-0.9793298950195313	0.2592676696777344	0		-0.6951140747070312	-2.726115234375	0		1.6934049072265625	-0.6151519775390625	0		3.386254638671875	-0.21938844299316407	0		4.592796875	-0.32970281982421873	0		5.9674306640625	0.47166592407226565	0		-0.24374337768554688	5.8732958984375	0		
